<?xml version="1.0" encoding="utf-8"?>
<!-- Generator: Adobe Illustrator 26.0.3, SVG Export Plug-In . SVG Version: 6.00 Build 0)  -->
<svg version="1.1" id="レイヤー_1" xmlns="http://www.w3.org/2000/svg" xmlns:xlink="http://www.w3.org/1999/xlink" x="0px"
	 y="0px" viewBox="0 0 250 100" style="enable-background:new 0 0 250 100;" xml:space="preserve">
<style type="text/css">
	.st0{fill:#DF5656;}
</style>
<g>
	<path class="st0" d="M17.66,29.45c-4.65,2.57-5.57,10.61-3.81,17.16c1.37,5.1,4.28,11.94,9.18,18.39
		c4.61,6.06,11.05,11.5,15.96,14.64c6.3,4.04,15.29,6.6,19.94,4.03c2.35-1.3,5.85-4.85,6.01-5.49c0,0-2.05-2.69-2.5-3.28l-6.87-9.03
		c-0.51-0.67-3.71-0.06-5.34,0.73c-2.19,1.06-4.22,3.9-4.22,3.9c-1.5,0.74-2.77,0-5.4-1.03c-3.24-1.27-6.88-5.21-9.77-8.78
		c-2.65-3.71-5.39-8.15-5.43-11.19c-0.03-2.47-0.31-3.75,1.1-4.62c0,0,3.87-0.41,5.9-1.69c1.5-0.95,3.47-3.19,2.96-3.86l-6.87-9.03
		c-0.45-0.59-2.5-3.28-2.5-3.28C25.24,26.87,20.01,28.14,17.66,29.45z"/>
</g>
<g>
	<path class="st0" d="M71.6,28.03c-0.35,0-0.57-0.24-0.57-0.67s0.22-0.62,0.57-0.62h15.14c0.35,0,0.57,0.19,0.57,0.62
		s-0.22,0.67-0.57,0.67h-6.91v1.23h7.17c1.13,0,1.74,0.47,1.74,1.53v2.48c0,0.5-0.31,0.67-0.81,0.67c-0.5,0-0.81-0.17-0.81-0.67V31
		c0-0.39-0.24-0.52-0.68-0.52h-6.62v4.11c0,0.5-0.31,0.62-0.78,0.62c-0.48,0-0.83-0.13-0.83-0.62v-4.11h-6.36
		c-0.44,0-0.68,0.13-0.68,0.52v2.24c0,0.5-0.31,0.67-0.81,0.67c-0.5,0-0.81-0.17-0.81-0.67v-2.45c0-1.06,0.61-1.53,1.74-1.53h6.91
		v-1.23H71.6z M73.11,42.87c-1.22,0-1.81-0.5-1.81-1.66v-3.75c0-1.16,0.59-1.66,1.81-1.66h12.05c1.22,0,1.81,0.5,1.81,1.66v3.7
		c0,1.16-0.65,1.7-1.9,1.7h-5.32v0.78c0,0.58,0.13,0.8,1.02,0.84c0.59,0.04,1.44,0.06,2.53,0.06c1.37,0,2.2-0.04,2.85-0.13
		c0.72-0.09,0.98-0.24,1.13-0.58c0.15-0.32,0.24-0.75,0.26-1.44c0.02-0.37,0.28-0.6,0.72-0.6c0.04,0,0.09,0,0.13,0
		c0.48,0.04,0.78,0.28,0.78,0.67c0,0.04,0,0.06,0,0.09c-0.04,0.97-0.22,1.68-0.5,2.17c-0.35,0.62-0.92,0.88-2.07,1.01
		c-0.83,0.11-1.81,0.15-3.36,0.15c-1.29,0-2.35-0.02-3.16-0.09c-1.61-0.13-1.96-0.69-1.96-1.92v-1.01H73.11z M72.78,32.6
		c-0.3,0-0.46-0.24-0.46-0.56c0-0.32,0.15-0.56,0.46-0.56h3.86c0.31,0,0.48,0.24,0.48,0.56c0,0.32-0.17,0.56-0.48,0.56H72.78z
		 M72.78,34.68c-0.3,0-0.46-0.24-0.46-0.56c0-0.32,0.15-0.56,0.46-0.56h3.86c0.31,0,0.48,0.24,0.48,0.56c0,0.32-0.17,0.56-0.48,0.56
		H72.78z M73.56,37.05c-0.44,0-0.65,0.13-0.65,0.56v1.03h5.23v-1.59H73.56z M72.91,39.85v1.18c0,0.45,0.22,0.56,0.65,0.56h4.58
		v-1.74H72.91z M79.75,38.65h5.58v-1.03c0-0.43-0.2-0.56-0.63-0.56h-4.95V38.65z M79.75,41.6h4.95c0.44,0,0.63-0.11,0.63-0.56v-1.18
		h-5.58V41.6z M81.43,32.62c-0.28,0-0.46-0.26-0.46-0.56c0-0.32,0.17-0.56,0.46-0.56h4.1c0.31,0,0.46,0.24,0.46,0.56
		c0,0.3-0.15,0.56-0.46,0.56H81.43z M81.43,34.71c-0.28,0-0.46-0.24-0.46-0.56c0-0.32,0.17-0.56,0.46-0.56h4.1
		c0.31,0,0.46,0.24,0.46,0.56c0,0.32-0.15,0.56-0.46,0.56H81.43z"/>
	<path class="st0" d="M92.67,31.5c-0.39,0-0.59-0.32-0.59-0.75s0.2-0.71,0.59-0.71h6.99c0.37,0,0.57,0.28,0.57,0.71
		s-0.2,0.75-0.57,0.75H92.67z M93.43,28.35c-0.35,0-0.57-0.3-0.57-0.71c0-0.43,0.22-0.71,0.57-0.71h5.75c0.37,0,0.59,0.28,0.59,0.71
		c0,0.41-0.22,0.71-0.59,0.71H93.43z M93.43,34.6c-0.37,0-0.54-0.34-0.54-0.73c0-0.39,0.17-0.69,0.54-0.69h5.67
		c0.35,0,0.54,0.3,0.54,0.69c0,0.39-0.2,0.73-0.54,0.73H93.43z M93.43,37.68c-0.37,0-0.54-0.34-0.54-0.71
		c0-0.39,0.17-0.71,0.54-0.71h5.67c0.35,0,0.54,0.3,0.54,0.69c0,0.39-0.2,0.73-0.54,0.73H93.43z M99.64,44.18
		c0,1.1-0.54,1.55-1.68,1.55h-3.33c-1.13,0-1.68-0.45-1.68-1.55v-3.32c0-1.1,0.54-1.53,1.68-1.53h3.33c1.13,0,1.68,0.43,1.68,1.53
		V44.18z M95.07,40.67c-0.39,0-0.59,0.11-0.59,0.52v2.67c0,0.41,0.2,0.52,0.59,0.52h2.46c0.39,0,0.59-0.11,0.59-0.52v-2.67
		c0-0.41-0.2-0.52-0.59-0.52H95.07z M100.97,34.36c-0.39,0-0.61-0.28-0.61-0.73c0-0.43,0.22-0.73,0.61-0.73h4.38v-3.55
		c-1.37,0.26-2.77,0.43-4.03,0.56c-0.02,0-0.07,0-0.09,0c-0.44,0-0.68-0.26-0.72-0.69c0-0.04,0-0.09,0-0.11
		c0-0.41,0.24-0.62,0.65-0.67c2.94-0.28,6.32-0.93,9.02-1.87c0.11-0.04,0.22-0.06,0.33-0.06c0.31,0,0.54,0.15,0.68,0.47
		c0.07,0.13,0.09,0.26,0.09,0.37c0,0.3-0.17,0.54-0.48,0.65c-1.15,0.41-2.51,0.75-3.88,1.05v3.85h4.66c0.39,0,0.61,0.3,0.61,0.73
		s-0.22,0.73-0.61,0.73h-4.66v3.51h2.42c1.31,0,1.92,0.45,1.92,1.72v4.41c0,1.27-0.61,1.72-1.92,1.72h-6.32
		c-1.31,0-1.92-0.45-1.92-1.72v-4.41c0-1.27,0.61-1.72,1.92-1.72h2.33v-3.51H100.97z M108.95,44.24c0.48,0,0.7-0.13,0.7-0.6v-3.7
		c0-0.47-0.22-0.6-0.7-0.6h-5.53c-0.48,0-0.7,0.13-0.7,0.6v3.7c0,0.47,0.22,0.6,0.7,0.6H108.95z"/>
	<path class="st0" d="M118.56,43.47c-1.96,0-3.44-1.55-3.44-4.33c0-2.65,1.37-5.06,3.68-6.76c-0.28-1.21-0.52-2.45-0.7-3.72
		c0-0.06,0-0.11,0-0.15c0-0.43,0.24-0.75,0.68-0.82c0.09-0.02,0.15-0.02,0.22-0.02c0.41,0,0.7,0.24,0.74,0.71
		c0.13,1.03,0.3,2.09,0.5,3.12c1.46-0.77,3.23-1.23,5.32-1.23c0.17-0.88,0.33-1.77,0.44-2.58c0.07-0.52,0.35-0.75,0.78-0.75
		c0.07,0,0.13,0,0.2,0.02c0.48,0.04,0.76,0.37,0.76,0.8c0,0.06,0,0.13-0.02,0.19c-0.11,0.78-0.26,1.62-0.44,2.48
		c1.24,0.19,2.25,0.56,3.12,1.14c1.87,1.18,3.05,3.1,3.05,5.75c0,4.24-3.22,7.08-8.3,7.71c-0.09,0.02-0.15,0.02-0.22,0.02
		c-0.5,0-0.83-0.28-0.89-0.71c-0.02-0.06-0.02-0.13-0.02-0.19c0-0.41,0.26-0.75,0.78-0.82c4.12-0.52,6.82-2.73,6.82-5.99
		c0-1.94-0.87-3.51-2.2-4.44c-0.72-0.5-1.55-0.8-2.48-0.95c-0.26,1.05-0.54,2.07-0.87,2.97c-0.65,1.81-1.53,3.64-2.44,5.02
		c0.17,0.3,0.39,0.58,0.59,0.88c0.13,0.17,0.2,0.39,0.2,0.6s-0.09,0.45-0.3,0.62c-0.15,0.13-0.37,0.22-0.59,0.22
		c-0.22,0-0.41-0.09-0.54-0.24c-0.17-0.22-0.31-0.41-0.46-0.62C121.2,43,119.81,43.47,118.56,43.47z M119.24,34.08
		c-1.57,1.29-2.42,3.14-2.42,4.93c0,1.68,0.78,2.76,1.81,2.76c0.83,0,1.87-0.41,2.94-1.79C120.66,38.3,119.81,36.26,119.24,34.08z
		 M124.49,34.4c0.28-0.82,0.52-1.68,0.74-2.61c-1.59,0-3.25,0.45-4.6,1.21c0.48,2,1.18,3.92,1.98,5.53
		C123.31,37.38,123.97,35.89,124.49,34.4z"/>
	<path class="st0" d="M152.67,37.83c0,2.52-1.26,4.52-3.62,5.55c-1.57,0.71-4.05,1.1-6.21,1.1c-0.07,0-0.11,0-0.17,0
		c-0.57,0-0.92-0.34-0.92-0.82c0-0.02,0-0.04,0-0.04c0-0.5,0.3-0.88,0.85-0.88c2,0,4.4-0.3,5.84-0.95c1.68-0.75,2.48-2.13,2.48-3.92
		c0-2.02-1.26-3.38-3.88-3.38c-2.2,0-5.21,0.58-7.76,1.4c-0.11,0.02-0.22,0.04-0.33,0.04c-0.39,0-0.7-0.24-0.79-0.58
		c-0.02-0.11-0.04-0.22-0.04-0.32c0-0.37,0.2-0.65,0.63-0.77c2.59-0.77,5.71-1.36,8.24-1.36C150.73,32.9,152.67,34.99,152.67,37.83z
		"/>
	<path class="st0" d="M161.04,37.63c1.72-1.21,4.16-2.13,6.78-2.13c4.05,0,6.06,1.79,6.06,4.28c0,2.89-2.31,5.21-7.8,5.21
		c-2.2,0-4.21-0.24-5.51-0.65c-0.44-0.13-0.68-0.47-0.68-0.84c0-0.11,0.02-0.22,0.07-0.32c0.13-0.41,0.41-0.65,0.83-0.65
		c0.11,0,0.22,0.02,0.35,0.06c1.11,0.34,3.05,0.62,4.9,0.62c3.51,0,5.97-1.18,5.97-3.44c0-1.77-1.5-2.71-4.4-2.71
		c-2.44,0-5.21,1.01-7.08,2.5c-0.44,0.32-0.78,0.47-1.09,0.47c-0.2,0-0.35-0.04-0.5-0.13c-0.26-0.15-0.46-0.41-0.46-0.75
		c0-0.19,0.07-0.43,0.22-0.67c1.33-2.15,2.35-4.24,3.25-6.48c-0.35,0-0.7,0-1.05,0c-1.16,0-2.29-0.02-3.18-0.09
		c-0.48-0.04-0.74-0.39-0.74-0.86c0-0.02,0-0.04,0-0.06c0.02-0.47,0.33-0.8,0.76-0.8c0.02,0,0.07,0,0.09,0
		c1.33,0.06,2.9,0.11,4.71,0.11c0.3-0.9,0.57-1.85,0.83-2.84c0.09-0.54,0.44-0.73,0.87-0.73c0.07,0,0.15,0,0.22,0.02
		c0.46,0.06,0.7,0.34,0.7,0.73c0,0.11-0.02,0.22-0.04,0.32c-0.24,0.84-0.5,1.7-0.76,2.45c2.7-0.09,5.62-0.34,7.78-0.62
		c0.07-0.02,0.13-0.02,0.2-0.02c0.41,0,0.74,0.26,0.81,0.69c0,0.04,0,0.11,0,0.15c0,0.5-0.28,0.8-0.76,0.86
		c-2.29,0.32-5.53,0.6-8.63,0.67c-0.81,2.07-1.74,3.94-2.79,5.6L161.04,37.63z"/>
	<path class="st0" d="M186.77,31.3c0-0.02,0-0.04,0-0.06c0-0.45,0.37-0.67,0.78-0.71c0.02,0,0.04,0,0.07,0
		c0.46,0,0.78,0.22,0.81,0.71l0.13,1.89c0.26-0.02,0.59-0.04,0.92-0.04c2.75,0,4.36,1.64,4.36,3.94s-1.63,4.03-4.29,4.03
		c-0.96,0-2.05-0.24-2.79-0.62c-0.35-0.19-0.52-0.47-0.52-0.8c0-0.11,0.02-0.22,0.07-0.32c0.13-0.28,0.41-0.47,0.72-0.47
		c0.13,0,0.28,0.04,0.41,0.11c0.57,0.3,1.33,0.52,2.03,0.52c1.7,0,2.77-0.93,2.77-2.43c0-1.4-1-2.41-2.77-2.41
		c-1.26,0-2.42,0.21-3.57,0.54c-0.7,0.19-1.46,0.43-2.05,0.67c0.83,2.82,1.74,5.94,2.38,8.87c0.02,0.06,0.02,0.13,0.02,0.19
		c0,0.45-0.26,0.73-0.68,0.82c-0.09,0.02-0.17,0.02-0.26,0.02c-0.37,0-0.68-0.19-0.79-0.65c-0.61-2.86-1.42-5.96-2.22-8.7
		c-0.81,0.32-1.76,0.73-2.53,1.08c-0.13,0.06-0.24,0.09-0.37,0.09c-0.3,0-0.54-0.17-0.7-0.47c-0.04-0.11-0.07-0.24-0.07-0.37
		c0-0.28,0.15-0.56,0.5-0.73c0.85-0.41,1.79-0.77,2.68-1.1c-0.24-0.8-0.57-1.72-0.92-2.56c-0.02-0.09-0.04-0.19-0.04-0.28
		c0-0.34,0.24-0.6,0.59-0.71c0.13-0.02,0.24-0.04,0.35-0.04c0.33,0,0.61,0.17,0.74,0.54c0.35,0.86,0.61,1.74,0.87,2.52
		c1.11-0.39,2.51-0.82,3.55-1.01L186.77,31.3z"/>
	<path class="st0" d="M212.39,31.3c0.13-0.02,0.24-0.04,0.35-0.04c0.44,0,0.72,0.22,0.85,0.65c0.02,0.11,0.04,0.22,0.04,0.32
		c0,0.39-0.24,0.71-0.74,0.84c-2.27,0.56-5.36,1.55-7.67,2.58c-2.83,1.27-4.31,2.89-4.31,4.46c0,1.87,1.39,2.82,6.01,2.82
		c2.14,0,4.53-0.24,6.19-0.58c0.09-0.02,0.17-0.02,0.26-0.02c0.48,0,0.81,0.28,0.87,0.77c0.02,0.09,0.02,0.15,0.02,0.24
		c0,0.45-0.31,0.82-0.83,0.93c-1.68,0.37-4.05,0.52-6.6,0.52c-5.34,0.02-7.8-1.44-7.8-4.69c0-2.17,1.83-4.28,4.97-5.79
		c-0.65-1.94-1.18-4.18-1.59-6.35c-0.02-0.06-0.02-0.13-0.02-0.19c0-0.47,0.35-0.75,0.79-0.84c0.09-0.02,0.15-0.02,0.24-0.02
		c0.44,0,0.81,0.24,0.87,0.73c0.37,2.05,0.83,4.13,1.46,5.94C207.9,32.66,210.45,31.8,212.39,31.3z"/>
	<path class="st0" d="M223.51,35.42c1.7-0.75,3.29-1.12,4.84-1.12c3.92,0,6.32,2.05,6.32,4.97c0,3.62-3.33,5.9-8.65,5.9
		c-3.22,0-5.32-1.33-5.32-3.34c0-1.68,1.42-2.91,3.55-2.91c2.35,0,4.29,1.4,4.66,4.24c2.22-0.52,3.88-1.87,3.88-3.88
		c0-2.05-1.7-3.53-4.79-3.53c-2.9,0-5.53,0.95-9.11,3.14c-0.2,0.11-0.39,0.15-0.59,0.15c-0.3,0-0.61-0.13-0.78-0.41
		c-0.11-0.15-0.15-0.3-0.15-0.47c0-0.32,0.17-0.65,0.5-0.82c3.59-2.17,8.43-5.68,11.18-8.07c-2.38,0.19-5.71,0.32-8.5,0.34
		c-0.46,0-0.81-0.32-0.81-0.84c0-0.5,0.26-0.88,0.76-0.88c2.94,0,6.67-0.11,9.57-0.3c0.07,0,0.13,0,0.2,0c0.5,0,0.87,0.17,1.09,0.54
		c0.11,0.19,0.17,0.39,0.17,0.62c0,0.3-0.13,0.6-0.41,0.88c-1.87,1.72-3.92,3.27-5.69,4.44c-0.61,0.41-1.35,0.9-1.96,1.25
		L223.51,35.42z M224.16,40.39c-1.13,0-1.79,0.58-1.79,1.38c0,0.99,1.31,1.81,3.25,1.83c0.52,0,1.07,0,1.59-0.04
		C227.04,41.44,225.67,40.39,224.16,40.39z"/>
	<path class="st0" d="M84.46,66.68c1.68,0,2.48,0.9,2.48,2.63v9.37c0,1.72-0.81,2.6-2.48,2.6H72.1c-0.52,0-0.83-0.37-0.83-0.93
		c0-0.58,0.26-0.9,0.85-0.9h11.79c0.85,0,1.07-0.24,1.07-1.01V69.5c0-0.78-0.22-0.99-1.07-0.99H72.47c-0.57,0-0.83-0.32-0.83-0.88
		c0-0.58,0.26-0.95,0.85-0.95H84.46z"/>
	<path class="st0" d="M92.51,74.97c-0.54,0-0.85-0.34-0.85-0.93c0-0.56,0.31-0.97,0.87-0.97h16.54c0.57,0,0.87,0.41,0.87,0.97
		c0,0.58-0.3,0.93-0.85,0.93H92.51z"/>
	<path class="st0" d="M115.89,66.1c0-0.54,0.37-0.88,0.94-0.88c0.54,0,0.96,0.32,0.96,0.9v4.65c0,3.47-0.44,5.99-1.2,7.75
		c-0.76,1.68-1.83,3.08-3.07,3.98c-0.26,0.21-0.54,0.3-0.81,0.3c-0.28,0-0.57-0.13-0.74-0.34c-0.17-0.19-0.24-0.41-0.24-0.65
		c0-0.3,0.15-0.58,0.44-0.75c1.11-0.78,2.07-1.89,2.7-3.38c0.65-1.61,1.02-3.77,1.02-7.06V66.1z M121.6,65.95
		c0-0.54,0.35-0.86,0.94-0.86c0.54,0,0.96,0.32,0.96,0.86l-0.09,13.78c0,0.39,0.17,0.6,0.54,0.6c0.15,0,0.37-0.04,0.63-0.15
		c2.44-1.05,3.68-2.97,4.79-5.32c0.17-0.34,0.41-0.5,0.72-0.5c0.15,0,0.33,0.04,0.48,0.13c0.3,0.13,0.5,0.43,0.5,0.77
		c0,0.11-0.02,0.24-0.09,0.39c-1.33,3.25-3.99,5.9-6.56,6.52c-0.39,0.09-0.74,0.13-1.05,0.13c-1.22,0-1.87-0.69-1.87-2.07
		L121.6,65.95z"/>
	<path class="st0" d="M134.27,72.37c-0.07,0.02-0.13,0.02-0.17,0.02c-0.46,0-0.78-0.28-0.85-0.75c0-0.04,0-0.09,0-0.13
		c0-0.43,0.26-0.8,0.74-0.88l4.25-0.6V65.6c0-0.56,0.33-0.86,0.94-0.86s0.94,0.3,0.94,0.88v4.13l8.98-1.27
		c0.2-0.02,0.39-0.04,0.57-0.04c0.68,0,1.2,0.19,1.5,0.58c0.24,0.28,0.39,0.67,0.39,1.14c0,0.34-0.06,0.71-0.24,1.1
		c-0.92,2.11-3.01,4.22-4.84,5.23c-0.24,0.13-0.44,0.19-0.63,0.19c-0.26,0-0.48-0.13-0.7-0.37c-0.13-0.13-0.2-0.32-0.2-0.5
		c0-0.3,0.17-0.62,0.48-0.8c1.55-0.86,3.25-2.43,3.97-4.03c0.09-0.17,0.13-0.32,0.13-0.45c0-0.24-0.15-0.39-0.46-0.39
		c-0.04,0-0.13,0-0.2,0.02l-8.76,1.31v5.79c0,2.76,0.28,3.1,4.66,3.1c1.81,0,3.57-0.17,4.86-0.39c0.11-0.02,0.22-0.02,0.3-0.02
		c0.54,0,0.85,0.26,0.92,0.71c0.02,0.09,0.02,0.15,0.02,0.22c0,0.45-0.26,0.8-0.78,0.88c-1.42,0.24-3.16,0.37-5.25,0.37
		c-5.62,0-6.6-0.82-6.6-4.78v-5.6L134.27,72.37z"/>
	<path class="st0" d="M172.94,68.92c0,0.13-0.02,0.26-0.04,0.39c-0.89,3.66-2.96,7.15-5.99,9.41c-2.64,1.96-6.67,3.23-10.04,3.36
		c-0.02,0-0.02,0-0.04,0c-0.57,0-0.98-0.32-1.02-0.86c0-0.04,0-0.06,0-0.11c0-0.52,0.33-0.93,0.87-0.95
		c3.22-0.15,6.93-1.4,9.11-3.06c2.55-1.96,4.45-5.1,5.23-8.29c0.15-0.58,0.48-0.82,0.87-0.82c0.11,0,0.22,0.02,0.33,0.04
		C172.66,68.17,172.94,68.47,172.94,68.92z M162.44,70.51c0.17,0.21,0.26,0.45,0.26,0.69c0,0.26-0.11,0.52-0.3,0.73
		c-0.17,0.19-0.41,0.3-0.68,0.3c-0.26,0-0.54-0.13-0.81-0.41c-1.2-1.36-2.99-2.89-4.55-3.94c-0.24-0.17-0.35-0.43-0.35-0.69
		c0-0.22,0.09-0.45,0.24-0.62c0.2-0.24,0.44-0.32,0.7-0.32c0.24,0,0.46,0.09,0.65,0.21C159.19,67.46,161.18,68.99,162.44,70.51z"/>
	<path class="st0" d="M183.04,68.55c-1.29,2.02-3.12,3.96-5.08,5.27c-0.17,0.13-0.37,0.19-0.57,0.19c-0.26,0-0.5-0.13-0.7-0.39
		c-0.11-0.15-0.17-0.32-0.17-0.52c0-0.3,0.13-0.6,0.41-0.8c1.26-0.88,2.46-1.98,3.42-3.17c1.02-1.27,1.81-2.61,2.53-4.41
		c0.17-0.43,0.41-0.56,0.76-0.56c0.11,0,0.22,0.02,0.35,0.02c0.37,0.06,0.7,0.3,0.7,0.71c0,0.06,0,0.13-0.02,0.19
		c-0.09,0.43-0.39,1.12-0.72,1.79l7-0.11c1.35-0.02,2.18,0.75,2.18,2.09c0,0.26-0.02,0.54-0.09,0.84c-0.54,2.8-1.76,5.47-3.68,7.73
		c-2.24,2.65-5.4,4.76-9.52,5.86c-0.15,0.02-0.28,0.04-0.41,0.04c-0.37,0-0.65-0.15-0.79-0.52c-0.04-0.13-0.07-0.26-0.07-0.39
		c0-0.37,0.24-0.69,0.68-0.82c3.31-0.97,5.86-2.5,7.95-4.56c-1.61-1.49-3.4-2.84-4.99-3.81c-0.24-0.15-0.35-0.37-0.35-0.62
		c0-0.19,0.09-0.39,0.24-0.56c0.17-0.24,0.44-0.34,0.68-0.34c0.2,0,0.37,0.07,0.57,0.17c1.31,0.78,3.36,2.13,5.1,3.81
		c1.39-1.79,2.24-3.83,2.7-6.22c0.04-0.17,0.07-0.32,0.07-0.45c0-0.41-0.22-0.62-0.87-0.6L183.04,68.55z"/>
	<path class="st0" d="M197.9,74.97c-0.54,0-0.85-0.34-0.85-0.93c0-0.56,0.3-0.97,0.87-0.97h16.54c0.57,0,0.87,0.41,0.87,0.97
		c0,0.58-0.3,0.93-0.85,0.93H197.9z"/>
</g>
</svg>
